STARTFONT 2.1
COMMENT  
COMMENT  WARNING:  This bdf file was generated from an X server using
COMMENT  xbdfdump.  The resulting font is subject to the same copyright,
COMMENT  license, and trademark restrictions as the original font.  The
COMMENT  author and distributors of xbdfdump disclaim all liability for
COMMENT  misuse of the program or its output.
COMMENT  
FONT -phaisarn-angsana-medium-i-normal--12-120-75-75-p-75-tis620-0
SIZE 12 75 75
FONTBOUNDINGBOX 27 33 -8 -10
STARTPROPERTIES 27
FOUNDRY "Phaisarn"
FAMILY_NAME "Angsana"
WEIGHT_NAME "medium"
SLANT "i"
SETWIDTH_NAME "normal"
ADD_STYLE_NAME ""
PIXEL_SIZE 12
POINT_SIZE 120
RESOLUTION_X 75
RESOLUTION_Y 75
SPACING "p"
AVERAGE_WIDTH 75
CHARSET_REGISTRY "tis620"
CHARSET_ENCODING "0"
COPYRIGHT "Angsana by Pt-TITech 1997"
RAW_PIXELSIZE 1000
RAW_POINTSIZE 0
RAW_ASCENT 0
RAW_DESCENT 0
RAW_AVERAGE_WIDTH 2994
FACE_NAME "Angsana Inclined"
WEIGHT 10
X_HEIGHT 7
QUAD_WIDTH 10
FONT_ASCENT 20
FONT_DESCENT 10
_XMBDFED_INFO "Edited with xmbdfed 4.5."
ENDPROPERTIES
CHARS 195
STARTCHAR space
ENCODING 32
SWIDTH 320 0
DWIDTH 4 0
BBX 0 0 0 0
BITMAP
ENDCHAR
STARTCHAR exclam
ENCODING 33
SWIDTH 400 0
DWIDTH 5 0
BBX 4 11 1 0
BITMAP
10
20
20
20
20
20
20
40
00
C0
C0
ENDCHAR
STARTCHAR quotedbl
ENCODING 34
SWIDTH 560 0
DWIDTH 7 0
BBX 4 5 3 6
BITMAP
D0
90
90
A0
A0
ENDCHAR
STARTCHAR numbersign
ENCODING 35
SWIDTH 640 0
DWIDTH 8 0
BBX 7 11 1 0
BITMAP
12
22
22
FE
24
24
44
FE
48
48
C8
ENDCHAR
STARTCHAR dollar
ENCODING 36
SWIDTH 640 0
DWIDTH 8 0
BBX 7 12 1 -1
BITMAP
1C
2E
4A
48
70
38
1C
24
A4
A4
F8
40
ENDCHAR
STARTCHAR percent
ENCODING 37
SWIDTH 1040 0
DWIDTH 13 0
BBX 12 11 1 0
BITMAP
3010
4820
4840
8880
9300
9660
6C90
1890
2110
4120
80C0
ENDCHAR
STARTCHAR ampersand
ENCODING 38
SWIDTH 960 0
DWIDTH 12 0
BBX 11 11 1 0
BITMAP
0300
0480
0880
0B00
0C00
3CE0
4480
C680
C700
4700
38E0
ENDCHAR
STARTCHAR apostrophe
ENCODING 39
SWIDTH 240 0
DWIDTH 3 0
BBX 2 5 2 6
BITMAP
40
C0
80
80
80
ENDCHAR
STARTCHAR parenleft
ENCODING 40
SWIDTH 400 0
DWIDTH 5 0
BBX 6 14 1 -3
BITMAP
04
08
10
20
60
40
C0
C0
80
80
80
80
40
40
ENDCHAR
STARTCHAR parenright
ENCODING 41
SWIDTH 400 0
DWIDTH 5 0
BBX 6 14 -2 -3
BITMAP
08
08
04
04
04
04
0C
0C
08
18
10
20
40
80
ENDCHAR
STARTCHAR asterisk
ENCODING 42
SWIDTH 640 0
DWIDTH 8 0
BBX 7 6 2 5
BITMAP
10
D6
7C
7C
D6
10
ENDCHAR
STARTCHAR plus
ENCODING 43
SWIDTH 880 0
DWIDTH 11 0
BBX 8 9 2 1
BITMAP
10
10
10
10
FF
10
10
10
10
ENDCHAR
STARTCHAR comma
ENCODING 44
SWIDTH 320 0
DWIDTH 4 0
BBX 2 3 0 -2
BITMAP
C0
40
80
ENDCHAR
STARTCHAR minus
ENCODING 45
SWIDTH 400 0
DWIDTH 5 0
BBX 4 1 1 3
BITMAP
F0
ENDCHAR
STARTCHAR period
ENCODING 46
SWIDTH 320 0
DWIDTH 4 0
BBX 2 2 0 -1
BITMAP
C0
C0
ENDCHAR
STARTCHAR slash
ENCODING 47
SWIDTH 320 0
DWIDTH 4 0
BBX 6 11 0 0
BITMAP
04
04
08
08
10
10
20
20
40
40
80
ENDCHAR
STARTCHAR 0
ENCODING 48
SWIDTH 640 0
DWIDTH 8 0
BBX 7 11 1 0
BITMAP
0C
32
62
42
42
C6
86
84
88
50
60
ENDCHAR
STARTCHAR 1
ENCODING 49
SWIDTH 640 0
DWIDTH 8 0
BBX 5 11 1 0
BITMAP
38
08
18
10
10
30
20
20
20
60
F0
ENDCHAR
STARTCHAR 2
ENCODING 50
SWIDTH 640 0
DWIDTH 8 0
BBX 7 11 0 0
BITMAP
1C
26
02
02
02
04
08
10
20
44
FC
ENDCHAR
STARTCHAR 3
ENCODING 51
SWIDTH 640 0
DWIDTH 8 0
BBX 6 11 1 0
BITMAP
1C
34
04
04
08
38
04
04
04
48
F0
ENDCHAR
STARTCHAR 4
ENCODING 52
SWIDTH 640 0
DWIDTH 8 0
BBX 7 11 1 0
BITMAP
02
06
0C
14
24
4C
88
FC
08
10
10
ENDCHAR
STARTCHAR 5
ENCODING 53
SWIDTH 640 0
DWIDTH 8 0
BBX 7 11 1 0
BITMAP
1E
10
20
38
08
04
04
04
08
88
F0
ENDCHAR
STARTCHAR 6
ENCODING 54
SWIDTH 640 0
DWIDTH 8 0
BBX 7 11 1 0
BITMAP
06
08
30
20
78
44
C4
84
88
48
70
ENDCHAR
STARTCHAR 7
ENCODING 55
SWIDTH 640 0
DWIDTH 8 0
BBX 6 11 2 0
BITMAP
7C
84
08
08
10
10
20
40
40
80
80
ENDCHAR
STARTCHAR 8
ENCODING 56
SWIDTH 640 0
DWIDTH 8 0
BBX 7 11 1 0
BITMAP
1C
12
22
22
14
38
4C
84
84
48
30
ENDCHAR
STARTCHAR 9
ENCODING 57
SWIDTH 640 0
DWIDTH 8 0
BBX 8 11 0 0
BITMAP
0E
31
21
41
43
62
3E
0C
18
30
C0
ENDCHAR
STARTCHAR colon
ENCODING 58
SWIDTH 400 0
DWIDTH 5 0
BBX 3 7 1 0
BITMAP
60
60
00
00
00
C0
C0
ENDCHAR
STARTCHAR semicolon
ENCODING 59
SWIDTH 400 0
DWIDTH 5 0
BBX 3 9 1 -2
BITMAP
60
60
00
00
00
00
C0
40
80
ENDCHAR
STARTCHAR less
ENCODING 60
SWIDTH 880 0
DWIDTH 11 0
BBX 8 8 1 1
BITMAP
01
06
38
C0
C0
38
06
01
ENDCHAR
STARTCHAR equal
ENCODING 61
SWIDTH 880 0
DWIDTH 11 0
BBX 8 3 2 4
BITMAP
FF
00
FF
ENDCHAR
STARTCHAR greater
ENCODING 62
SWIDTH 880 0
DWIDTH 11 0
BBX 8 8 1 1
BITMAP
80
60
1C
03
03
1C
60
80
ENDCHAR
STARTCHAR question
ENCODING 63
SWIDTH 640 0
DWIDTH 8 0
BBX 5 11 2 0
BITMAP
30
48
88
18
30
20
60
40
00
C0
C0
ENDCHAR
STARTCHAR at
ENCODING 64
SWIDTH 1200 0
DWIDTH 15 0
BBX 14 14 1 -3
BITMAP
0780
1860
2010
4348
44C8
8848
8888
9090
9310
9D24
48C8
4010
3060
0F80
ENDCHAR
STARTCHAR A
ENCODING 65
SWIDTH 800 0
DWIDTH 10 0
BBX 9 11 -1 0
BITMAP
0080
0180
0180
0300
0500
0500
0900
1F00
3100
4100
E780
ENDCHAR
STARTCHAR B
ENCODING 66
SWIDTH 800 0
DWIDTH 10 0
BBX 9 11 0 0
BITMAP
3C00
1300
1180
1180
3300
3C00
2200
2300
6200
4C00
F800
ENDCHAR
STARTCHAR C
ENCODING 67
SWIDTH 880 0
DWIDTH 11 0
BBX 11 11 1 0
BITMAP
0720
08C0
3040
6040
6000
C000
C000
C000
6080
7300
1C00
ENDCHAR
STARTCHAR D
ENCODING 68
SWIDTH 960 0
DWIDTH 12 0
BBX 11 11 0 0
BITMAP
3F00
1980
10C0
1060
1060
3060
2060
20C0
6080
6300
FC00
ENDCHAR
STARTCHAR E
ENCODING 69
SWIDTH 800 0
DWIDTH 10 0
BBX 10 11 0 0
BITMAP
1FC0
0840
0840
1800
1100
1E00
3200
2000
2080
6100
FF00
ENDCHAR
STARTCHAR F
ENCODING 70
SWIDTH 800 0
DWIDTH 10 0
BBX 11 11 0 0
BITMAP
1FE0
0820
0820
1800
1100
1F00
3100
3000
2000
6000
F000
ENDCHAR
STARTCHAR G
ENCODING 71
SWIDTH 960 0
DWIDTH 12 0
BBX 11 11 1 0
BITMAP
0720
08C0
3040
2040
4000
C3C0
C180
C180
6100
3100
1E00
ENDCHAR
STARTCHAR H
ENCODING 72
SWIDTH 960 0
DWIDTH 12 0
BBX 13 11 0 0
BITMAP
1E78
0830
0820
1820
1060
1FC0
3040
20C0
2080
6080
F3C0
ENDCHAR
STARTCHAR I
ENCODING 73
SWIDTH 400 0
DWIDTH 5 0
BBX 7 11 0 0
BITMAP
1E
0C
08
08
18
10
10
30
20
60
F0
ENDCHAR
STARTCHAR J
ENCODING 74
SWIDTH 560 0
DWIDTH 7 0
BBX 10 11 -1 0
BITMAP
03C0
0180
0100
0300
0200
0200
0600
0400
CC00
D800
7000
ENDCHAR
STARTCHAR K
ENCODING 75
SWIDTH 880 0
DWIDTH 11 0
BBX 12 11 0 0
BITMAP
1E70
0C60
0880
1B00
1400
1C00
3600
2200
2100
6180
F3E0
ENDCHAR
STARTCHAR L
ENCODING 76
SWIDTH 720 0
DWIDTH 9 0
BBX 8 11 0 0
BITMAP
3E
08
18
10
10
10
30
20
21
61
FE
ENDCHAR
STARTCHAR M
ENCODING 77
SWIDTH 1040 0
DWIDTH 13 0
BBX 15 11 0 0
BITMAP
180E
0C1C
0C18
1C28
1458
1450
2490
2530
2620
4660
E4F0
ENDCHAR
STARTCHAR N
ENCODING 78
SWIDTH 880 0
DWIDTH 11 0
BBX 12 11 0 0
BITMAP
3870
1820
0C20
1440
1640
1640
2280
2380
2180
4100
E100
ENDCHAR
STARTCHAR O
ENCODING 79
SWIDTH 960 0
DWIDTH 12 0
BBX 10 11 1 0
BITMAP
0600
0980
10C0
20C0
60C0
40C0
C180
C100
C300
6400
1800
ENDCHAR
STARTCHAR P
ENCODING 80
SWIDTH 800 0
DWIDTH 10 0
BBX 10 11 0 0
BITMAP
3F00
1880
18C0
10C0
1180
3E00
2000
2000
6000
6000
F000
ENDCHAR
STARTCHAR Q
ENCODING 81
SWIDTH 960 0
DWIDTH 12 0
BBX 10 14 1 -3
BITMAP
0600
0980
10C0
20C0
60C0
40C0
C180
C180
C100
4200
3C00
2000
5180
BE00
ENDCHAR
STARTCHAR R
ENCODING 82
SWIDTH 800 0
DWIDTH 10 0
BBX 9 11 0 0
BITMAP
3E00
1900
1180
1180
1300
3C00
2400
2400
6600
4200
E380
ENDCHAR
STARTCHAR S
ENCODING 83
SWIDTH 640 0
DWIDTH 8 0
BBX 9 11 0 0
BITMAP
1C80
1300
2100
2100
3000
1800
0C00
0E00
4600
8600
B000
ENDCHAR
STARTCHAR T
ENCODING 84
SWIDTH 720 0
DWIDTH 9 0
BBX 9 11 1 0
BITMAP
7F80
4880
8880
1800
1000
1000
3000
3000
2000
6000
F800
ENDCHAR
STARTCHAR U
ENCODING 85
SWIDTH 960 0
DWIDTH 12 0
BBX 11 11 2 0
BITMAP
F8E0
6040
6040
4080
4080
C080
8100
8100
8200
4400
3800
ENDCHAR
STARTCHAR V
ENCODING 86
SWIDTH 800 0
DWIDTH 10 0
BBX 9 11 2 0
BITMAP
F380
6100
4200
4200
4400
4800
5000
7000
C000
C000
8000
ENDCHAR
STARTCHAR W
ENCODING 87
SWIDTH 1040 0
DWIDTH 13 0
BBX 13 11 2 0
BITMAP
FFB8
6210
4220
4620
4A40
5680
5680
E700
C600
8400
8400
ENDCHAR
STARTCHAR X
ENCODING 88
SWIDTH 800 0
DWIDTH 10 0
BBX 12 11 -1 0
BITMAP
1E70
0C20
0440
0480
0700
0600
0E00
1A00
2300
4100
E7C0
ENDCHAR
STARTCHAR Y
ENCODING 89
SWIDTH 720 0
DWIDTH 9 0
BBX 9 11 2 0
BITMAP
F380
6100
2200
2400
3400
1800
1000
3000
2000
6000
F000
ENDCHAR
STARTCHAR Z
ENCODING 90
SWIDTH 720 0
DWIDTH 9 0
BBX 9 11 0 0
BITMAP
3F80
2100
4300
0600
0400
0800
1000
3000
6100
4300
FE00
ENDCHAR
STARTCHAR bracketleft
ENCODING 91
SWIDTH 480 0
DWIDTH 6 0
BBX 7 14 0 -3
BITMAP
0E
18
10
10
10
20
20
20
60
40
40
40
80
E0
ENDCHAR
STARTCHAR backslash
ENCODING 92
SWIDTH 320 0
DWIDTH 4 0
BBX 2 11 2 0
BITMAP
80
80
80
80
40
40
40
40
40
40
40
ENDCHAR
STARTCHAR bracketright
ENCODING 93
SWIDTH 480 0
DWIDTH 6 0
BBX 7 14 -1 -3
BITMAP
0E
02
04
04
04
0C
08
08
08
10
10
10
30
E0
ENDCHAR
STARTCHAR asciicircum
ENCODING 94
SWIDTH 560 0
DWIDTH 7 0
BBX 6 6 1 5
BITMAP
10
30
28
48
44
84
ENDCHAR
STARTCHAR underscore
ENCODING 95
SWIDTH 640 0
DWIDTH 8 0
BBX 8 1 0 -3
BITMAP
FF
ENDCHAR
STARTCHAR grave
ENCODING 96
SWIDTH 400 0
DWIDTH 5 0
BBX 3 3 3 8
BITMAP
C0
40
20
ENDCHAR
STARTCHAR a
ENCODING 97
SWIDTH 640 0
DWIDTH 8 0
BBX 8 7 0 0
BITMAP
1D
23
42
42
86
9D
E6
ENDCHAR
STARTCHAR b
ENCODING 98
SWIDTH 640 0
DWIDTH 8 0
BBX 7 11 1 0
BITMAP
70
10
30
20
2C
72
42
42
C4
88
70
ENDCHAR
STARTCHAR c
ENCODING 99
SWIDTH 560 0
DWIDTH 7 0
BBX 7 7 0 0
BITMAP
1C
22
46
80
80
8C
70
ENDCHAR
STARTCHAR d
ENCODING 100
SWIDTH 640 0
DWIDTH 8 0
BBX 9 11 0 0
BITMAP
0380
0180
0100
0100
1F00
2200
4200
C600
8C00
9500
EE00
ENDCHAR
STARTCHAR e
ENCODING 101
SWIDTH 560 0
DWIDTH 7 0
BBX 7 7 0 0
BITMAP
0C
32
46
F8
80
C4
78
ENDCHAR
STARTCHAR f
ENCODING 102
SWIDTH 320 0
DWIDTH 4 0
BBX 11 14 -3 -3
BITMAP
0040
00A0
0100
0200
0F00
0600
0400
0400
0C00
0800
0800
1800
1000
C000
ENDCHAR
STARTCHAR g
ENCODING 103
SWIDTH 640 0
DWIDTH 8 0
BBX 8 10 0 -3
BITMAP
3B
42
42
6C
30
60
5E
82
84
78
ENDCHAR
STARTCHAR h
ENCODING 104
SWIDTH 640 0
DWIDTH 8 0
BBX 7 11 1 0
BITMAP
70
20
20
20
2C
54
64
48
C8
8E
88
ENDCHAR
STARTCHAR i
ENCODING 105
SWIDTH 320 0
DWIDTH 4 0
BBX 3 10 1 0
BITMAP
60
60
00
A0
40
80
80
80
C0
80
ENDCHAR
STARTCHAR j
ENCODING 106
SWIDTH 320 0
DWIDTH 4 0
BBX 7 13 -3 -3
BITMAP
06
06
00
12
0C
08
08
08
10
10
10
20
C0
ENDCHAR
STARTCHAR k
ENCODING 107
SWIDTH 560 0
DWIDTH 7 0
BBX 7 11 0 0
BITMAP
70
30
20
20
2E
6C
48
70
D0
9A
8C
ENDCHAR
STARTCHAR l
ENCODING 108
SWIDTH 320 0
DWIDTH 4 0
BBX 4 11 1 0
BITMAP
70
30
20
20
20
40
40
40
C0
A0
C0
ENDCHAR
STARTCHAR m
ENCODING 109
SWIDTH 960 0
DWIDTH 12 0
BBX 12 7 0 0
BITMAP
7660
2AA0
3320
6760
4440
C450
8CE0
ENDCHAR
STARTCHAR n
ENCODING 110
SWIDTH 640 0
DWIDTH 8 0
BBX 7 7 1 0
BITMAP
CC
54
64
C8
88
8E
88
ENDCHAR
STARTCHAR o
ENCODING 111
SWIDTH 640 0
DWIDTH 8 0
BBX 7 7 0 0
BITMAP
1C
22
42
82
84
88
70
ENDCHAR
STARTCHAR p
ENCODING 112
SWIDTH 640 0
DWIDTH 8 0
BBX 10 10 -2 -3
BITMAP
1D80
0A40
0C40
1840
1080
1100
3E00
2000
6000
F000
ENDCHAR
STARTCHAR q
ENCODING 113
SWIDTH 640 0
DWIDTH 8 0
BBX 8 10 0 -3
BITMAP
1D
22
42
86
8C
94
6C
08
18
7C
ENDCHAR
STARTCHAR r
ENCODING 114
SWIDTH 480 0
DWIDTH 6 0
BBX 6 7 1 0
BITMAP
EC
7C
50
60
40
C0
80
ENDCHAR
STARTCHAR s
ENCODING 115
SWIDTH 480 0
DWIDTH 6 0
BBX 6 7 0 0
BITMAP
4C
44
70
38
88
88
F0
ENDCHAR
STARTCHAR t
ENCODING 116
SWIDTH 320 0
DWIDTH 4 0
BBX 4 9 1 0
BITMAP
10
20
F0
60
40
40
80
A0
C0
ENDCHAR
STARTCHAR u
ENCODING 117
SWIDTH 640 0
DWIDTH 8 0
BBX 7 7 1 0
BITMAP
C6
C6
44
4C
98
BA
CC
ENDCHAR
STARTCHAR v
ENCODING 118
SWIDTH 560 0
DWIDTH 7 0
BBX 6 7 1 0
BITMAP
8C
C4
4C
48
50
60
40
ENDCHAR
STARTCHAR w
ENCODING 119
SWIDTH 880 0
DWIDTH 11 0
BBX 11 7 0 0
BITMAP
C240
6620
2640
2A40
3280
2300
2200
ENDCHAR
STARTCHAR x
ENCODING 120
SWIDTH 560 0
DWIDTH 7 0
BBX 7 7 0 0
BITMAP
66
18
10
10
18
2A
CC
ENDCHAR
STARTCHAR y
ENCODING 121
SWIDTH 560 0
DWIDTH 7 0
BBX 8 10 -1 -3
BITMAP
63
11
12
16
14
18
10
20
E0
80
ENDCHAR
STARTCHAR z
ENCODING 122
SWIDTH 480 0
DWIDTH 6 0
BBX 6 7 0 0
BITMAP
7C
4C
18
10
20
44
F8
ENDCHAR
STARTCHAR braceleft
ENCODING 123
SWIDTH 480 0
DWIDTH 6 0
BBX 7 14 1 -3
BITMAP
06
08
08
18
18
30
40
C0
40
40
80
80
80
40
ENDCHAR
STARTCHAR bar
ENCODING 124
SWIDTH 320 0
DWIDTH 4 0
BBX 1 14 2 -3
BITMAP
80
80
80
80
80
80
80
80
80
80
80
80
80
80
ENDCHAR
STARTCHAR braceright
ENCODING 125
SWIDTH 480 0
DWIDTH 6 0
BBX 6 14 -1 -3
BITMAP
08
04
04
04
08
08
04
0C
10
30
30
20
60
80
ENDCHAR
STARTCHAR asciitilde
ENCODING 126
SWIDTH 720 0
DWIDTH 9 0
BBX 9 2 0 3
BITMAP
F080
8F00
ENDCHAR
STARTCHAR C001122
ENCODING 133
SWIDTH 1120 0
DWIDTH 14 0
BBX 10 2 2 0
BITMAP
CCC0
CCC0
ENDCHAR
STARTCHAR C001107
ENCODING 145
SWIDTH 400 0
DWIDTH 5 0
BBX 3 4 3 7
BITMAP
20
40
C0
C0
ENDCHAR
STARTCHAR C001110
ENCODING 146
SWIDTH 400 0
DWIDTH 5 0
BBX 2 4 3 7
BITMAP
C0
C0
40
80
ENDCHAR
STARTCHAR C001113
ENCODING 147
SWIDTH 720 0
DWIDTH 9 0
BBX 6 4 3 7
BITMAP
64
48
D8
D8
ENDCHAR
STARTCHAR C001114
ENCODING 148
SWIDTH 720 0
DWIDTH 9 0
BBX 6 4 3 7
BITMAP
6C
6C
4C
88
ENDCHAR
STARTCHAR C001121
ENCODING 149
SWIDTH 480 0
DWIDTH 6 0
BBX 4 4 1 3
BITMAP
60
F0
F0
60
ENDCHAR
STARTCHAR C001103
ENCODING 150
SWIDTH 640 0
DWIDTH 8 0
BBX 8 1 0 4
BITMAP
FF
ENDCHAR
STARTCHAR C001104
ENCODING 151
SWIDTH 1120 0
DWIDTH 14 0
BBX 14 1 0 3
BITMAP
FFFC
ENDCHAR
STARTCHAR exclamdown
ENCODING 161
SWIDTH 800 0
DWIDTH 10 0
BBX 8 10 1 0
BITMAP
1E
22
43
F1
41
43
43
C2
C2
82
ENDCHAR
STARTCHAR cent
ENCODING 162
SWIDTH 800 0
DWIDTH 10 0
BBX 8 10 1 0
BITMAP
71
59
F9
BB
52
12
12
32
14
0C
ENDCHAR
STARTCHAR sterling
ENCODING 163
SWIDTH 880 0
DWIDTH 11 0
BBX 9 10 1 0
BITMAP
2880
7880
A980
A980
A900
5900
1900
1100
1A00
0C00
ENDCHAR
STARTCHAR currency
ENCODING 164
SWIDTH 800 0
DWIDTH 10 0
BBX 8 10 1 0
BITMAP
3E
43
B1
A9
F9
43
43
42
C2
86
ENDCHAR
STARTCHAR yen
ENCODING 165
SWIDTH 800 0
DWIDTH 10 0
BBX 7 10 1 0
BITMAP
34
5A
8A
B2
CA
F2
42
C2
82
84
ENDCHAR
STARTCHAR brokenbar
ENCODING 166
SWIDTH 960 0
DWIDTH 12 0
BBX 10 10 1 0
BITMAP
2C40
5440
8440
94C0
94C0
6C80
0880
1E80
2980
1980
ENDCHAR
STARTCHAR section
ENCODING 167
SWIDTH 640 0
DWIDTH 8 0
BBX 6 10 1 0
BITMAP
0C
14
14
1C
04
88
48
68
38
18
ENDCHAR
STARTCHAR diaeresis
ENCODING 168
SWIDTH 720 0
DWIDTH 9 0
BBX 6 10 2 0
BITMAP
38
CC
64
A4
E4
2C
2C
68
28
30
ENDCHAR
STARTCHAR copyright
ENCODING 169
SWIDTH 800 0
DWIDTH 10 0
BBX 8 10 1 0
BITMAP
3C
C3
61
B1
E1
23
2F
37
65
66
ENDCHAR
STARTCHAR ordfeminine
ENCODING 170
SWIDTH 800 0
DWIDTH 10 0
BBX 9 10 1 0
BITMAP
3880
4880
AF00
AB00
4900
1900
1300
1200
1600
7C00
ENDCHAR
STARTCHAR guillemotleft
ENCODING 171
SWIDTH 880 0
DWIDTH 11 0
BBX 10 10 1 0
BITMAP
28C0
7C80
5580
8600
A500
6D00
0900
0B00
0A00
3E00
ENDCHAR
STARTCHAR notsign
ENCODING 172
SWIDTH 960 0
DWIDTH 12 0
BBX 11 10 1 0
BITMAP
3C20
6620
4260
7260
6240
4240
4640
4E40
B5C0
48C0
ENDCHAR
STARTCHAR hyphen
ENCODING 173
SWIDTH 1040 0
DWIDTH 13 0
BBX 12 14 1 -4
BITMAP
3C10
6620
8260
F260
4240
4640
4440
6440
D480
6300
0000
0480
0C80
0700
ENDCHAR
STARTCHAR registered
ENCODING 174
SWIDTH 800 0
DWIDTH 10 0
BBX 9 15 0 -5
BITMAP
0F00
1180
1080
3880
1080
1080
1080
7180
9100
6500
0900
3900
5D00
7700
0200
ENDCHAR
STARTCHAR macron
ENCODING 175
SWIDTH 800 0
DWIDTH 10 0
BBX 8 15 1 -5
BITMAP
0E
13
21
39
31
21
21
E3
A3
CA
12
72
A2
5E
06
ENDCHAR
STARTCHAR degree
ENCODING 176
SWIDTH 720 0
DWIDTH 9 0
BBX 10 14 -1 -4
BITMAP
0740
09C0
3E00
0900
1D80
0D00
0D00
0D00
0B00
0E00
1600
7A00
AE00
0E00
ENDCHAR
STARTCHAR plusminus
ENCODING 177
SWIDTH 1040 0
DWIDTH 13 0
BBX 10 10 1 0
BITMAP
48C0
B940
AA40
8A40
AA40
5CC0
1880
1880
1880
1080
ENDCHAR
STARTCHAR twosuperior
ENCODING 178
SWIDTH 1040 0
DWIDTH 13 0
BBX 11 10 1 0
BITMAP
3320
4D20
4520
9D20
A560
9940
F340
C740
8AC0
8640
ENDCHAR
STARTCHAR threesuperior
ENCODING 179
SWIDTH 1040 0
DWIDTH 13 0
BBX 11 10 1 0
BITMAP
3C20
4640
8240
F240
4240
46C0
C6C0
F580
9740
6480
ENDCHAR
STARTCHAR acute
ENCODING 180
SWIDTH 800 0
DWIDTH 10 0
BBX 8 10 1 0
BITMAP
1C
63
81
91
A9
AB
D3
E2
C6
86
ENDCHAR
STARTCHAR mu
ENCODING 181
SWIDTH 800 0
DWIDTH 10 0
BBX 7 10 1 0
BITMAP
34
4A
42
92
AA
AA
D2
66
C4
84
ENDCHAR
STARTCHAR paragraph
ENCODING 182
SWIDTH 800 0
DWIDTH 10 0
BBX 8 10 1 0
BITMAP
3C
43
81
F1
41
41
C3
F2
92
62
ENDCHAR
STARTCHAR periodcentered
ENCODING 183
SWIDTH 880 0
DWIDTH 11 0
BBX 9 10 1 0
BITMAP
7100
9280
F480
7480
3880
2980
2900
3100
6100
6100
ENDCHAR
STARTCHAR cedilla
ENCODING 184
SWIDTH 720 0
DWIDTH 9 0
BBX 8 10 1 0
BITMAP
79
AE
F0
2C
24
24
6C
4C
48
F0
ENDCHAR
STARTCHAR onesuperior
ENCODING 185
SWIDTH 880 0
DWIDTH 11 0
BBX 10 10 1 0
BITMAP
70C0
9180
7180
3180
3100
2100
2100
2E00
7500
6600
ENDCHAR
STARTCHAR masculine
ENCODING 186
SWIDTH 880 0
DWIDTH 11 0
BBX 9 10 1 0
BITMAP
6080
B080
B080
7180
3100
2100
2100
2100
2300
FE00
ENDCHAR
STARTCHAR guillemotright
ENCODING 187
SWIDTH 880 0
DWIDTH 11 0
BBX 10 16 1 0
BITMAP
0040
0040
0040
00C0
0080
0080
6080
9080
7080
3180
2100
2100
2100
2100
6300
FE00
ENDCHAR
STARTCHAR onequarter
ENCODING 188
SWIDTH 800 0
DWIDTH 10 0
BBX 9 10 0 0
BITMAP
1080
2880
7980
4180
4900
5500
E500
C300
C300
8200
ENDCHAR
STARTCHAR onehalf
ENCODING 189
SWIDTH 800 0
DWIDTH 10 0
BBX 10 16 0 0
BITMAP
0040
0040
00C0
00C0
0080
0080
1080
2980
7980
4100
4900
5500
E500
C300
C300
8200
ENDCHAR
STARTCHAR threequarters
ENCODING 190
SWIDTH 880 0
DWIDTH 11 0
BBX 10 10 1 0
BITMAP
6440
9440
96C0
6A80
2A80
2A80
2B80
3300
6300
6300
ENDCHAR
STARTCHAR questiondown
ENCODING 191
SWIDTH 880 0
DWIDTH 11 0
BBX 11 16 1 0
BITMAP
0020
0020
0060
0040
0040
0040
6440
96C0
7680
2A80
2A80
2A80
3280
3380
6300
6300
ENDCHAR
STARTCHAR Agrave
ENCODING 192
SWIDTH 800 0
DWIDTH 10 0
BBX 8 10 0 0
BITMAP
1E
23
21
79
21
21
23
E2
A2
C2
ENDCHAR
STARTCHAR Aacute
ENCODING 193
SWIDTH 800 0
DWIDTH 10 0
BBX 9 10 1 0
BITMAP
6080
B080
9180
7180
3100
2100
2100
6100
FB00
4600
ENDCHAR
STARTCHAR Acircumflex
ENCODING 194
SWIDTH 640 0
DWIDTH 8 0
BBX 8 10 0 0
BITMAP
19
29
73
43
32
42
42
86
44
38
ENDCHAR
STARTCHAR Atilde
ENCODING 195
SWIDTH 640 0
DWIDTH 8 0
BBX 7 10 2 0
BITMAP
62
9C
C0
38
10
10
10
70
B0
60
ENDCHAR
STARTCHAR Adiaeresis
ENCODING 196
SWIDTH 800 0
DWIDTH 10 0
BBX 8 14 1 -4
BITMAP
1C
63
81
F1
41
41
C3
F2
92
62
02
06
06
04
ENDCHAR
STARTCHAR Aring
ENCODING 197
SWIDTH 800 0
DWIDTH 10 0
BBX 8 10 1 0
BITMAP
3C
C3
1D
63
43
C3
C2
E2
92
62
ENDCHAR
STARTCHAR AE
ENCODING 198
SWIDTH 800 0
DWIDTH 10 0
BBX 8 14 0 -4
BITMAP
1E
23
21
79
21
21
23
E3
A2
C2
02
02
06
04
ENDCHAR
STARTCHAR Ccedilla
ENCODING 199
SWIDTH 720 0
DWIDTH 9 0
BBX 6 10 2 0
BITMAP
70
8C
84
04
0C
0C
08
38
48
30
ENDCHAR
STARTCHAR Egrave
ENCODING 200
SWIDTH 800 0
DWIDTH 10 0
BBX 9 11 1 0
BITMAP
0080
3C80
4700
4300
B600
CA00
F200
4600
4600
C400
8400
ENDCHAR
STARTCHAR Eacute
ENCODING 201
SWIDTH 880 0
DWIDTH 11 0
BBX 9 10 1 0
BITMAP
6080
A180
6180
2100
3900
2300
7F00
4300
4200
FC00
ENDCHAR
STARTCHAR Ecircumflex
ENCODING 202
SWIDTH 880 0
DWIDTH 11 0
BBX 9 11 2 0
BITMAP
0080
3C80
C700
9A00
6600
4600
4600
C600
E400
A400
4400
ENDCHAR
STARTCHAR Ediaeresis
ENCODING 203
SWIDTH 880 0
DWIDTH 11 0
BBX 10 10 1 0
BITMAP
6180
9240
7380
2500
2900
2900
3300
6200
4200
4200
ENDCHAR
STARTCHAR Igrave
ENCODING 204
SWIDTH 880 0
DWIDTH 11 0
BBX 11 10 1 0
BITMAP
61E0
9540
6580
2C80
2D80
5500
5500
7300
6200
C200
ENDCHAR
STARTCHAR Iacute
ENCODING 205
SWIDTH 800 0
DWIDTH 10 0
BBX 7 10 1 0
BITMAP
3C
C6
A2
52
D2
E2
86
84
8C
70
ENDCHAR
STARTCHAR Icircumflex
ENCODING 206
SWIDTH 720 0
DWIDTH 9 0
BBX 8 10 1 0
BITMAP
39
26
4E
3E
36
D4
E4
84
C8
70
ENDCHAR
STARTCHAR Idiaeresis
ENCODING 207
SWIDTH 800 0
DWIDTH 10 0
BBX 7 10 1 0
BITMAP
06
0A
6A
8E
96
E4
04
04
04
0C
ENDCHAR
STARTCHAR ETH
ENCODING 208
SWIDTH 720 0
DWIDTH 9 0
BBX 9 9 0 0
BITMAP
3980
6F80
3C00
0000
0000
7300
5B00
DE00
7800
ENDCHAR
STARTCHAR Ntilde
ENCODING 209
SWIDTH 0 0
DWIDTH 0 0
BBX 7 3 -4 12
BITMAP
62
94
78
ENDCHAR
STARTCHAR Ograve
ENCODING 210
SWIDTH 560 0
DWIDTH 7 0
BBX 4 10 2 0
BITMAP
60
90
10
10
10
30
30
20
20
20
ENDCHAR
STARTCHAR Oacute
ENCODING 211
SWIDTH 560 0
DWIDTH 7 0
BBX 8 16 -2 0
BITMAP
60
A0
A0
40
00
00
06
09
01
01
01
03
03
02
02
02
ENDCHAR
STARTCHAR Ocircumflex
ENCODING 212
SWIDTH 0 0
DWIDTH 0 0
BBX 7 4 -7 12
BITMAP
3C
42
FA
06
ENDCHAR
STARTCHAR Otilde
ENCODING 213
SWIDTH 0 0
DWIDTH 0 0
BBX 8 5 -8 11
BITMAP
01
3D
43
FD
03
ENDCHAR
STARTCHAR Odiaeresis
ENCODING 214
SWIDTH 0 0
DWIDTH 0 0
BBX 9 6 -7 11
BITMAP
0300
0280
3D80
4200
FD00
0300
ENDCHAR
STARTCHAR multiply
ENCODING 215
SWIDTH 0 0
DWIDTH 0 0
BBX 8 6 -7 11
BITMAP
05
0D
7F
83
F9
07
ENDCHAR
STARTCHAR Ooblique
ENCODING 216
SWIDTH 0 0
DWIDTH 0 0
BBX 3 4 -6 -5
BITMAP
60
E0
20
20
ENDCHAR
STARTCHAR Ugrave
ENCODING 217
SWIDTH 0 0
DWIDTH 0 0
BBX 5 4 -8 -5
BITMAP
68
E8
28
30
ENDCHAR
STARTCHAR Uacute
ENCODING 218
SWIDTH 0 0
DWIDTH 0 0
BBX 2 2 -4 -3
BITMAP
C0
C0
ENDCHAR
STARTCHAR Ucircumflex
ENCODING 219
SWIDTH 400 0
DWIDTH 5 0
BBX 0 0 0 0
BITMAP
ENDCHAR
STARTCHAR Udiaeresis
ENCODING 220
SWIDTH 400 0
DWIDTH 5 0
BBX 5 3 1 -3
BITMAP
F0
88
88
ENDCHAR
STARTCHAR ssharp
ENCODING 223
SWIDTH 880 0
DWIDTH 11 0
BBX 10 13 0 -1
BITMAP
0300
3F80
1AC0
1AC0
12C0
1680
3F00
3580
34C0
34C0
6D80
FE00
0800
ENDCHAR
STARTCHAR agrave
ENCODING 224
SWIDTH 320 0
DWIDTH 4 0
BBX 3 10 0 0
BITMAP
20
60
60
40
40
40
40
E0
A0
C0
ENDCHAR
STARTCHAR aacute
ENCODING 225
SWIDTH 720 0
DWIDTH 9 0
BBX 8 10 0 0
BITMAP
21
63
42
42
42
42
42
E7
A5
C6
ENDCHAR
STARTCHAR acircumflex
ENCODING 226
SWIDTH 640 0
DWIDTH 8 0
BBX 7 16 3 0
BITMAP
70
9E
60
10
18
10
10
10
30
20
20
20
20
60
50
60
ENDCHAR
STARTCHAR atilde
ENCODING 227
SWIDTH 560 0
DWIDTH 7 0
BBX 5 16 2 0
BITMAP
70
48
A8
A8
48
10
10
10
10
20
20
20
20
60
50
60
ENDCHAR
STARTCHAR adiaeresis
ENCODING 228
SWIDTH 640 0
DWIDTH 8 0
BBX 5 17 3 0
BITMAP
80
98
A8
B8
B8
D0
10
10
10
10
10
20
20
20
30
50
20
ENDCHAR
STARTCHAR aring
ENCODING 229
SWIDTH 560 0
DWIDTH 7 0
BBX 4 14 2 -4
BITMAP
60
90
10
10
10
10
30
20
20
20
20
20
60
40
ENDCHAR
STARTCHAR ae
ENCODING 230
SWIDTH 800 0
DWIDTH 10 0
BBX 7 13 1 -3
BITMAP
34
4A
42
A2
A2
42
06
06
04
04
04
04
04
ENDCHAR
STARTCHAR ccedilla
ENCODING 231
SWIDTH 0 0
DWIDTH 0 0
BBX 7 7 -6 11
BITMAP
02
04
78
44
8C
A4
58
ENDCHAR
STARTCHAR egrave
ENCODING 232
SWIDTH 0 0
DWIDTH 0 0
BBX 1 3 -1 17
BITMAP
80
80
80
ENDCHAR
STARTCHAR eacute
ENCODING 233
SWIDTH 0 0
DWIDTH 0 0
BBX 5 5 -1 18
BITMAP
08
48
A8
70
E0
ENDCHAR
STARTCHAR ecircumflex
ENCODING 234
SWIDTH 0 0
DWIDTH 0 0
BBX 6 5 -3 18
BITMAP
04
7C
AC
AC
50
ENDCHAR
STARTCHAR ediaeresis
ENCODING 235
SWIDTH 0 0
DWIDTH 0 0
BBX 4 4 -2 18
BITMAP
20
20
F0
40
ENDCHAR
STARTCHAR igrave
ENCODING 236
SWIDTH 0 0
DWIDTH 0 0
BBX 5 5 0 16
BITMAP
08
18
60
A0
40
ENDCHAR
STARTCHAR iacute
ENCODING 237
SWIDTH 0 0
DWIDTH 0 0
BBX 4 4 -4 11
BITMAP
70
90
D0
60
ENDCHAR
STARTCHAR icircumflex
ENCODING 238
SWIDTH 0 0
DWIDTH 0 0
BBX 4 5 -3 12
BITMAP
30
40
60
80
C0
ENDCHAR
STARTCHAR idiaeresis
ENCODING 239
SWIDTH 800 0
DWIDTH 10 0
BBX 8 9 1 0
BITMAP
1C
22
41
5D
BD
BD
9A
44
38
ENDCHAR
STARTCHAR eth
ENCODING 240
SWIDTH 800 0
DWIDTH 10 0
BBX 7 7 1 0
BITMAP
1C
66
E2
C2
C2
64
38
ENDCHAR
STARTCHAR ntilde
ENCODING 241
SWIDTH 800 0
DWIDTH 10 0
BBX 8 7 0 0
BITMAP
1E
63
C1
9D
9D
CA
36
ENDCHAR
STARTCHAR ograve
ENCODING 242
SWIDTH 1120 0
DWIDTH 14 0
BBX 12 11 1 0
BITMAP
6000
6000
6000
4000
4770
D890
D690
D690
8D20
C060
FFC0
ENDCHAR
STARTCHAR oacute
ENCODING 243
SWIDTH 960 0
DWIDTH 12 0
BBX 10 7 1 0
BITMAP
3B80
4640
8440
8440
F4C0
F880
6900
ENDCHAR
STARTCHAR ocircumflex
ENCODING 244
SWIDTH 1040 0
DWIDTH 13 0
BBX 11 11 1 0
BITMAP
0020
0060
00C0
0F00
3000
4700
CB00
8B00
8800
CE00
7180
ENDCHAR
STARTCHAR otilde
ENCODING 245
SWIDTH 1040 0
DWIDTH 13 0
BBX 13 11 0 0
BITMAP
0008
0398
0590
05E0
07C0
38C0
43E0
C240
8300
C180
7FE0
ENDCHAR
STARTCHAR odiaeresis
ENCODING 246
SWIDTH 800 0
DWIDTH 10 0
BBX 7 11 2 0
BITMAP
80
C0
40
40
78
C4
02
C2
C6
8C
70
ENDCHAR
STARTCHAR division
ENCODING 247
SWIDTH 1040 0
DWIDTH 13 0
BBX 11 11 1 0
BITMAP
0080
00C0
0060
0020
33A0
4CA0
88A0
80C0
B140
7180
6300
ENDCHAR
STARTCHAR oslash
ENCODING 248
SWIDTH 960 0
DWIDTH 12 0
BBX 11 11 1 0
BITMAP
0060
0060
0060
0040
3880
4700
8000
B300
B300
6900
4600
ENDCHAR
STARTCHAR ugrave
ENCODING 249
SWIDTH 800 0
DWIDTH 10 0
BBX 9 11 1 0
BITMAP
0080
0080
3F00
6000
4000
3E00
4000
9C00
9C00
4800
7000
ENDCHAR
STARTCHAR uacute
ENCODING 250
SWIDTH 960 0
DWIDTH 12 0
BBX 10 10 1 0
BITMAP
0740
0740
6640
9AC0
92C0
E280
0280
0680
0480
0580
ENDCHAR
STARTCHAR ucircumflex
ENCODING 251
SWIDTH 1600 0
DWIDTH 20 0
BBX 18 9 1 0
BITMAP
1E0000
620000
400000
800000
812440
81DC80
825300
440000
780000
ENDCHAR
STARTCHAR udiaeresis
ENCODING 252
SWIDTH 0 0
DWIDTH 0 0
BBX 4 4 -7 -10
BITMAP
70
F0
30
30
ENDCHAR
STARTCHAR yacute
ENCODING 253
SWIDTH 0 0
DWIDTH 0 0
BBX 5 5 -8 -10
BITMAP
C8
A8
D8
58
70
ENDCHAR
STARTCHAR thorn
ENCODING 254
SWIDTH 0 0
DWIDTH 0 0
BBX 2 2 -5 -8
BITMAP
C0
C0
ENDCHAR
ENDFONT
